# xmcd
#
# Track frame offsets:
#   150
#   19184
#   36546
#   55472
#   68358
#   89377
#   103904
#   119643
#   143114
#   162134
#   176274
#
# Disc length: 2628 seconds
#
# Revision: 0
# Processed by: cddbd v1.5.2PL0 Copyright (c) Steve Scherf et al.
# Submitted via: uFREEDB 1.6.2
#
DISCID=960a420b
DTITLE=Oldtown - Live in Germany 2007
DYEAR=2007
DGENRE=Blues
TTITLE0=The Mermaid
TTITLE1=The Mermaid
TTITLE2=The Mermaid
TTITLE3=The Mermaid
TTITLE4=The Mermaid
TTITLE5=The Mermaid
TTITLE6=The Mermaid
TTITLE7=The Mermaid
TTITLE8=The Mermaid
TTITLE9=The Mermaid
TTITLE10=The Mermaid
EXTD=
EXTT0=
EXTT1=
EXTT2=
EXTT3=
EXTT4=
EXTT5=
EXTT6=
EXTT7=
EXTT8=
EXTT9=
EXTT10=
PLAYORDER=
